<svg
  xmlns="http://www.w3.org/2000/svg"
  width="235"
  height="235"
  style="width: 100%; height: 100%"
  viewBox="0 0 235 235"
>
  <path
    fill="#fff"
    d="m79.455 15.572-63.89 63.89c-20.75 20.75-20.75 54.39 0 75.13l63.89 63.89c20.75 20.75 54.38 20.75 75.13 0l63.89-63.89c20.75-20.74 20.75-54.38 0-75.13l-63.89-63.89c-20.75-20.75-54.38-20.75-75.13 0"
  />
  <path
    fill="#fff"
    d="m85.535 24.032-61.52 61.51c-17.54 17.54-17.54 45.97 0 63.51l61.52 61.52c17.54 17.53 45.97 17.53 63.51 0l61.51-61.52c17.54-17.54 17.54-45.97 0-63.51l-61.51-61.51c-17.54-17.54-45.97-17.54-63.51 0"
  />
  <path
    fill="#002b11"
    d="M117.285 224.772c-12.29 0-23.82-4.79-32.51-13.47l-61.51-61.52c-17.92-17.92-17.92-47.08 0-65l61.51-61.51c17.93-17.93 47.09-17.93 65.01 0l61.51 61.51c17.92 17.92 17.92 47.08 0 65l-61.51 61.52c-8.68 8.68-20.22 13.47-32.5 13.47m0-212.83c-11.22 0-22.46 4.28-30.99 12.82l-61.52 61.51c-17.09 17.09-17.09 44.91 0 62l61.52 61.52c8.28 8.28 19.28 12.83 30.99 12.83 11.7 0 22.71-4.55 30.99-12.83l61.51-61.52c17.09-17.09 17.09-44.91 0-62l-61.51-61.51c-8.56-8.54-19.78-12.82-30.99-12.82"
  />
  <path
    fill="#b2ff1a"
    d="m168.495 83.182-8.66-11.6c-3.28 2.45-7.45 2.77-10.97 1.26l-11.51 20.32c.89.68 1.74 1.45 2.45 2.39 1.12 1.51 1.81 3.19 2.15 4.91h12.38c2.47 0 4.73.81 6.58 2.13l5.32-3.96c-3.64-4.89-2.64-11.81 2.24-15.45zm-32.48-20.11-12.58-7.13c-3 5.3-9.75 7.17-15.05 4.17l-31.06 54.85c5.3 3 7.18 9.75 4.18 15.05l12.58 7.13c3-5.3 9.74-7.17 15.04-4.17l31.06-54.85c-5.3-3.01-7.17-9.75-4.17-15.05m-16.67 39.46c-3.32 5.85-10.75 7.92-16.6 4.6-5.86-3.32-7.92-10.75-4.6-16.61 3.32-5.85 10.75-7.91 16.6-4.59 5.86 3.32 7.92 10.75 4.6 16.6"
  />
  <path
    fill="#002b11"
    d="M133.355 136.142c0 2.04 1.66 3.68 3.68 3.68s3.68-1.66 3.68-3.68c0-2.03-1.66-3.69-3.68-3.69s-3.68 1.66-3.68 3.69"
  />
  <path
    fill="#002b11"
    d="m183.625 93.162-29.09-38.95-9.33 6.96-33.6-19.03-32.42 57.26h-14.54c-2.38 0-4.32 1.94-4.32 4.32v64.6c0 2.38 1.94 4.32 4.32 4.32h89.7c6.85 0 12.43-5.58 12.43-12.43v-48.38c0-1.85-.43-3.62-1.15-5.21l18.02-13.46zm-29.52-35.97 26.54 35.55-16.11 12.02c-.55-.78-1.17-1.49-1.89-2.12l5.06-3.79-.64-.86c-1.59-2.12-2.25-4.76-1.87-7.4a9.82 9.82 0 0 1 3.92-6.56l.85-.64-9.94-13.3-.85.64a9.86 9.86 0 0 1-7.41 1.87c-.47-.06-.94-.19-1.38-.34l3.49-6.17-6.67-3.77 6.88-5.13zm-15.37 35.7 10.6-18.73q1.02.375 2.13.57c2.85.4 5.68-.19 8.11-1.68l7.43 9.96c-2.13 1.89-3.49 4.45-3.92 7.3-.4 2.85.2 5.68 1.69 8.11l-3.9 2.92c-1.92-1.2-4.15-1.9-6.56-1.9h-11.51c-.43-1.57-1.13-3.11-2.17-4.49-.58-.77-1.24-1.42-1.94-2.02zm1.83 6.51h-5.51l2.62-4.62c.47.43.89.89 1.3 1.41.74 1 1.25 2.08 1.62 3.21zm-58.93 0 30.77-54.36 38.61 21.86-18.39 32.5h-3.25l12.28-21.71-.94-.53c-4.79-2.71-6.47-8.82-3.76-13.6l.53-.94-14.43-8.17-.54.93c-2.7 4.79-8.81 6.47-13.6 3.77l-.93-.53-23.08 40.76h-3.25zm37.82 0h-21.41c-.73-2.72-.45-5.73 1.04-8.37 1.47-2.57 3.85-4.44 6.7-5.23.98-.28 1.98-.41 2.98-.41 1.9 0 3.77.49 5.47 1.45 4.5 2.56 6.5 7.77 5.22 12.56m2.21 0c1.24-5.53-1.21-11.47-6.4-14.41-3.09-1.75-6.67-2.19-10.07-1.23-3.41.93-6.26 3.15-7.98 6.23-1.68 2.96-2.07 6.32-1.39 9.41h-8.51l21.45-37.91c5.33 2.43 11.67.66 14.99-4.15l10.81 6.13c-1.19 2.6-1.43 5.47-.64 8.26.77 2.77 2.45 5.13 4.81 6.75l-11.85 20.94h-5.24zm42.94 44.25h-28.25c-4.22 0-7.64-3.43-7.64-7.64s3.42-7.64 7.64-7.64h28.25z"
  />
</svg>
